<?xml version="1.0" ?><svg data-name="Layer 2" id="Layer_2" viewBox="0 0 32 32" xmlns="http://www.w3.org/2000/svg"><defs><style>.cls-1{fill:#1a1a1a;}</style></defs><title/><path class="cls-1" d="M13.11,9.61a.47.47,0,0,0-.5,0,.49.49,0,0,0-.26.43V22a.49.49,0,0,0,.26.43.51.51,0,0,0,.24.07.5.5,0,0,0,.26-.08l9.85-6a.51.51,0,0,0,0-.86Zm.24,11.47V10.92L21.74,16Z"/><path class="cls-1" d="M16,2.5A13.5,13.5,0,1,0,29.5,16,13.52,13.52,0,0,0,16,2.5Zm0,26A12.5,12.5,0,1,1,28.5,16,12.52,12.52,0,0,1,16,28.5Z"/></svg>